<svg width="30" height="30" viewBox="0 0 30 30" fill="none" xmlns="http://www.w3.org/2000/svg">
<path d="M30 0L27.2669 26.997L14.9816 30L2.7302 27.0012L0 0H30Z" fill="#264DE4"/>
<path d="M24.9271 25.2779L27.2627 2.20776H15V27.7047L24.9271 25.2779Z" fill="#2965F1"/>
<path d="M6.25891 12.2221L6.5955 15.5337H15V12.2221H6.25891Z" fill="#EBEBEB"/>
<path d="M15 5.51935H14.987H5.58252L5.92391 8.83097H15V5.51935Z" fill="#EBEBEB"/>
<path d="M15 24.268V20.8226L14.9835 20.8265L10.8008 19.8306L10.5334 17.1894H8.50094H6.76331L7.28948 22.3891L14.9827 24.2723L15 24.268Z" fill="#EBEBEB"/>
<path d="M19.6117 15.5336L19.1758 19.8285L14.987 20.8254V24.2707L22.6864 22.3892L22.7428 21.8297L23.6254 13.1113L23.717 12.2221L24.3951 5.51935H14.987V8.83097H20.2792L19.9374 12.2221H14.987V15.5336H19.6117Z" fill="white"/>
</svg>
