<svg width="23" height="23" viewBox="0 0 23 23" fill="none" xmlns="http://www.w3.org/2000/svg">
<path d="M21.0611 9.91111C20.7325 9.91111 20.4174 10.0416 20.1851 10.274C19.9527 10.5063 19.8222 10.8214 19.8222 11.15V18.5833C19.8222 18.9119 19.6917 19.227 19.4594 19.4594C19.227 19.6917 18.9119 19.8222 18.5833 19.8222H3.71667C3.38809 19.8222 3.07298 19.6917 2.84064 19.4594C2.6083 19.227 2.47778 18.9119 2.47778 18.5833V3.71667C2.47778 3.38809 2.6083 3.07298 2.84064 2.84064C3.07298 2.6083 3.38809 2.47778 3.71667 2.47778H11.15C11.4786 2.47778 11.7937 2.34725 12.026 2.11492C12.2584 1.88258 12.3889 1.56746 12.3889 1.23889C12.3889 0.910315 12.2584 0.595199 12.026 0.362862C11.7937 0.130525 11.4786 0 11.15 0H3.71667C2.73095 0 1.7856 0.391576 1.08859 1.08859C0.391576 1.7856 0 2.73095 0 3.71667V18.5833C0 19.5691 0.391576 20.5144 1.08859 21.2114C1.7856 21.9084 2.73095 22.3 3.71667 22.3H18.5833C19.5691 22.3 20.5144 21.9084 21.2114 21.2114C21.9084 20.5144 22.3 19.5691 22.3 18.5833V11.15C22.3 10.8214 22.1695 10.5063 21.9371 10.274C21.7048 10.0416 21.3897 9.91111 21.0611 9.91111Z" fill="#155263"/>
<path d="M16.1056 2.47778H18.063L10.2704 10.258C10.1543 10.3732 10.0621 10.5102 9.99921 10.6612C9.93631 10.8121 9.90393 10.9741 9.90393 11.1376C9.90393 11.3012 9.93631 11.4631 9.99921 11.6141C10.0621 11.765 10.1543 11.9021 10.2704 12.0172C10.3856 12.1333 10.5226 12.2255 10.6736 12.2884C10.8245 12.3513 10.9865 12.3837 11.15 12.3837C11.3136 12.3837 11.4755 12.3513 11.6265 12.2884C11.7774 12.2255 11.9144 12.1333 12.0296 12.0172L19.8222 4.237V6.19444C19.8222 6.52302 19.9527 6.83813 20.1851 7.07047C20.4174 7.30281 20.7325 7.43333 21.0611 7.43333C21.3897 7.43333 21.7048 7.30281 21.9371 7.07047C22.1695 6.83813 22.3 6.52302 22.3 6.19444V1.23889C22.3 0.910315 22.1695 0.595199 21.9371 0.362862C21.7048 0.130525 21.3897 0 21.0611 0H16.1056C15.777 0 15.4619 0.130525 15.2295 0.362862C14.9972 0.595199 14.8667 0.910315 14.8667 1.23889C14.8667 1.56746 14.9972 1.88258 15.2295 2.11492C15.4619 2.34725 15.777 2.47778 16.1056 2.47778Z" fill="#155263"/>
</svg>
