<svg width="22" height="32" viewBox="0 0 22 32" fill="none" xmlns="http://www.w3.org/2000/svg">
<path d="M5.33332 32C8.2773 32 10.6666 29.6105 10.6666 26.6665V21.3332H5.33332C2.38933 21.3332 0 23.7226 0 26.6665C0 29.6105 2.38933 32 5.33332 32Z" fill="#0ACF83"/>
<path d="M0 15.9999C0 13.0559 2.38933 10.6666 5.33332 10.6666H10.6666V21.3332H5.33332C2.38933 21.3332 0 18.9439 0 15.9999Z" fill="#A259FF"/>
<path d="M0 5.33329C0 2.38932 2.38933 0 5.33332 0H10.6666V10.6666H5.33332C2.38933 10.6666 0 8.27727 0 5.33329Z" fill="#F24E1E"/>
<path d="M10.6666 0H15.9999C18.9439 0 21.3333 2.38932 21.3333 5.33329C21.3333 8.27727 18.9439 10.6666 15.9999 10.6666H10.6666V0Z" fill="#FF7262"/>
<path d="M21.3333 15.9999C21.3333 18.9439 18.9439 21.3332 15.9999 21.3332C13.056 21.3332 10.6666 18.9439 10.6666 15.9999C10.6666 13.0559 13.056 10.6666 15.9999 10.6666C18.9439 10.6666 21.3333 13.0559 21.3333 15.9999Z" fill="#1ABCFE"/>
</svg>
