<svg width="26" height="26" viewBox="0 0 26 26" fill="none" xmlns="http://www.w3.org/2000/svg">
<path d="M12.6576 1.05479C9.61288 1.02385 6.68045 2.20305 4.50477 4.33324C2.3291 6.46342 1.0882 9.37029 1.05481 12.415C1.06654 14.8211 1.84057 17.1617 3.26573 19.1004C4.69089 21.0392 6.69384 22.4764 8.9869 23.2056C9.56703 23.311 9.77799 22.963 9.77799 22.6571C9.77799 22.3512 9.77799 21.6761 9.77799 20.7268C6.55031 21.4124 5.86469 19.2079 5.86469 19.2079C5.64983 18.5158 5.19303 17.9242 4.57784 17.5413C3.52304 16.8451 4.66222 16.8557 4.66222 16.8557C5.02681 16.9044 5.37564 17.0351 5.68254 17.2378C5.98944 17.4406 6.24644 17.7102 6.43428 18.0265C6.76162 18.5941 7.29873 19.0105 7.93 19.1861C8.56127 19.3617 9.23624 19.2824 9.80964 18.9653C9.86861 18.3876 10.1302 17.8496 10.548 17.4464C7.97429 17.1616 5.274 16.1912 5.274 11.8348C5.25099 10.6985 5.67086 9.59772 6.44483 8.76537C6.09235 7.78975 6.13397 6.71517 6.56086 5.76974C6.56086 5.76974 7.54182 5.46385 9.72525 6.93002C11.6259 6.42355 13.626 6.42355 15.5266 6.93002C17.7417 5.46385 18.691 5.76974 18.691 5.76974C19.1179 6.71517 19.1596 7.78975 18.8071 8.76537C19.599 9.58247 20.0417 10.6758 20.0412 11.8137C20.0412 16.1806 17.3198 17.1405 14.7672 17.4253C15.0467 17.6966 15.2626 18.0266 15.3994 18.3913C15.5362 18.7561 15.5904 19.1466 15.5583 19.5349V22.6465C15.5583 22.6465 15.7693 23.311 16.3494 23.195C18.6359 22.4613 20.6321 21.0238 22.0529 19.0878C23.4736 17.1518 24.2463 14.8163 24.2604 12.415C24.227 9.37029 22.9861 6.46342 20.8104 4.33324C18.6347 2.20305 15.7023 1.02385 12.6576 1.05479Z" fill="#155263"/>
</svg>
