<svg width="29" height="32" viewBox="0 0 29 32" fill="none" xmlns="http://www.w3.org/2000/svg">
<path d="M27.161 15.7555C27.161 14.1106 25.8274 12.777 24.1824 12.777C24.0766 12.777 23.9722 12.7826 23.8693 12.7935L27.9603 0.727448H10.5748L14.6602 12.783C14.5999 12.7792 14.5395 12.7772 14.4791 12.7771C12.8342 12.7771 11.5006 14.1105 11.5006 15.7556C11.5006 17.0853 12.3721 18.211 13.5747 18.594C12.9395 19.6943 12.1402 20.6853 11.2327 21.5416C9.99863 22.7057 8.58634 23.5885 7.05887 24.1324C5.24024 23.1981 4.38148 21.1204 5.15633 19.2987C5.24386 19.0929 5.3332 18.8844 5.41858 18.6768C6.73605 18.3693 7.71795 17.1882 7.71795 15.7769C7.71795 14.1319 6.38437 12.7984 4.73931 12.7984C3.09424 12.7984 1.76077 14.1319 1.76077 15.7769C1.76077 16.7857 2.26259 17.6767 3.02986 18.2155C2.29264 19.894 1.20894 21.6508 0.871289 23.6868C0.466628 26.1267 0.869929 28.7168 2.98029 30.1796C7.89516 33.5859 13.2302 28.0678 18.8553 26.6806C20.8939 26.178 23.1317 26.259 24.9278 25.2188C26.2766 24.4376 27.1659 23.1429 27.4181 21.6894C27.6676 20.2536 27.3041 18.824 26.4682 17.6647C26.9166 17.1297 27.1619 16.4536 27.161 15.7555Z" fill="#99425B"/>
<path d="M26.7014 21.565C26.4824 22.8269 25.703 23.9291 24.5633 24.5893C23.5008 25.2046 22.2276 25.3883 20.8795 25.5827C20.1573 25.6867 19.4106 25.7946 18.6811 25.9744C16.7523 26.45 14.884 27.378 13.0773 28.2755C9.46161 30.0714 6.33907 31.6223 3.3948 29.5816C1.23804 28.0869 1.33759 25.3213 1.58885 23.8058C1.82174 22.4017 2.45134 21.1086 3.06008 19.8581C3.16379 19.6456 3.26667 19.4326 3.36872 19.2193C3.67557 19.342 3.99755 19.4228 4.326 19.4595C3.70626 21.5047 4.68089 23.7286 6.7264 24.7795L7.00643 24.9233L7.30282 24.8178C8.91998 24.2418 10.4102 23.3177 11.7319 22.0706C12.5862 21.2646 13.3208 20.3729 13.9245 19.42C14.1081 19.4477 14.2935 19.4616 14.4791 19.4616C16.3566 19.4616 17.9113 18.0581 18.1519 16.2453C18.9204 16.2172 19.7366 16.217 20.5095 16.2451C20.7499 18.0581 22.3048 19.4617 24.1823 19.4617C24.9674 19.4617 25.6955 19.2157 26.2954 18.7978C26.7118 19.6503 26.8673 20.6095 26.7014 21.565ZM4.73938 13.5259C5.98067 13.5259 6.99047 14.5358 6.99047 15.777C6.99047 16.2229 6.85962 16.6386 6.63501 16.9888C6.26086 17.5723 5.6248 17.9723 4.89404 18.0222C4.8429 18.0256 4.79132 18.0281 4.73938 18.0281C4.46274 18.0281 4.19775 17.9777 3.95276 17.8861C3.45928 17.7005 3.04606 17.3486 2.78433 16.8909C2.59 16.5519 2.48788 16.1678 2.4882 15.777C2.4882 14.5358 3.49806 13.5259 4.73938 13.5259ZM12.2281 15.7556C12.2281 14.6278 13.0618 13.6914 14.1451 13.5295C14.2541 13.5131 14.3657 13.5045 14.4792 13.5045C15.2009 13.5045 15.8434 13.8464 16.2554 14.3761C16.3586 14.5082 16.4468 14.6514 16.5183 14.803C16.6582 15.1011 16.7306 15.4264 16.7303 15.7556C16.7303 15.9356 16.7085 16.1105 16.6685 16.2783C16.4491 17.1967 15.666 17.8988 14.7063 17.9954C14.6317 18.0028 14.556 18.0067 14.4792 18.0067C14.0462 18.0071 13.6224 17.8818 13.2592 17.646C12.6395 17.2446 12.2281 16.5474 12.2281 15.7556ZM21.6235 13.0787C21.1336 13.5463 20.7811 14.139 20.6041 14.7927C19.7556 14.7614 18.9062 14.7614 18.0578 14.7927C17.8673 14.0861 17.4725 13.4627 16.9413 12.9892L19.2707 8.27912L21.6235 13.0787ZM11.5894 1.45514H26.9455L23.3185 12.1521C23.1625 12.1895 23.0091 12.237 22.8592 12.2944L19.2764 4.9855L15.6833 12.2508C15.5267 12.197 15.3666 12.1539 15.2042 12.1216L11.5894 1.45514ZM26.4334 15.7557C26.4334 15.9814 26.3997 16.1993 26.3377 16.4051C26.1905 16.8896 25.885 17.3106 25.47 17.6007C25.0928 17.8654 24.6431 18.0072 24.1823 18.0068C23.1429 18.0068 22.2662 17.2985 22.0083 16.3393C21.9571 16.149 21.9312 15.9528 21.9312 15.7557C21.9312 15.448 21.9934 15.1546 22.1056 14.8872C22.1635 14.7504 22.2348 14.6197 22.3185 14.497C22.7236 13.899 23.4072 13.5047 24.1823 13.5047C24.2534 13.5047 24.3234 13.5083 24.393 13.5149C25.5358 13.6213 26.4334 14.5854 26.4334 15.7557ZM27.8884 15.7557C27.8884 13.9464 26.5847 12.4367 24.8677 12.1143L28.9751 0H9.56014L13.6739 12.1388C12.0164 12.5076 10.7732 13.9887 10.7732 15.7556C10.7732 17.0824 11.4744 18.2477 12.5252 18.9027C12.0197 19.6557 11.4204 20.3644 10.7335 21.0125C9.64414 22.04 8.43063 22.8194 7.12234 23.3322C5.80448 22.5044 5.24745 20.9433 5.82592 19.5834L5.87126 19.4768L5.95632 19.2768C7.40375 18.7719 8.44539 17.3943 8.44539 15.777C8.44539 13.7335 6.78285 12.0709 4.73938 12.0709C2.69592 12.0709 1.03316 13.7335 1.03316 15.777C1.03316 16.8085 1.45721 17.7425 2.13953 18.4151C2.01227 18.6847 1.88311 18.9535 1.75201 19.2213C1.12806 20.5026 0.421016 21.9549 0.153549 23.5677C-0.377532 26.7708 0.479179 29.3313 2.56596 30.7775C3.83221 31.655 5.1182 32 6.41222 32C8.84878 32 11.3137 30.776 13.7245 29.5785C15.4607 28.7162 17.2561 27.8244 19.0296 27.387C19.6894 27.2243 20.3684 27.1263 21.0872 27.0227C22.5128 26.817 23.9867 26.6045 25.2924 25.8483C26.806 24.9716 27.8419 23.5011 28.1349 21.8139C28.3864 20.3655 28.0838 18.9148 27.3456 17.6844C27.7013 17.104 27.8892 16.4364 27.8884 15.7557Z" fill="white"/>
</svg>
