<svg width="32" height="32" viewBox="0 0 32 32" fill="none" xmlns="http://www.w3.org/2000/svg">
<path d="M32 0.000244141H0V32.0001H32V0.000244141Z" fill="#F7DF1E"/>
<path d="M21.4959 25.0003C22.1404 26.0527 22.979 26.8263 24.4622 26.8263C25.7082 26.8263 26.5041 26.2036 26.5041 25.3431C26.5041 24.312 25.6864 23.9469 24.3149 23.347L23.5632 23.0244C21.3933 22.1 19.9517 20.9419 19.9517 18.4936C19.9517 16.2384 21.6701 14.5216 24.3555 14.5216C26.2674 14.5216 27.6419 15.187 28.6324 16.9292L26.2908 18.4327C25.7752 17.5082 25.219 17.144 24.3555 17.144C23.4748 17.144 22.9166 17.7028 22.9166 18.4327C22.9166 19.3348 23.4753 19.7 24.7655 20.2587L25.5172 20.5807C28.0721 21.6764 29.5147 22.7933 29.5147 25.3046C29.5147 28.0118 27.3879 29.495 24.5318 29.495C21.7392 29.495 19.935 28.1642 19.0522 26.42L21.4959 25.0003ZM10.8734 25.2609C11.3458 26.099 11.7755 26.8075 12.8086 26.8075C13.7966 26.8075 14.4198 26.421 14.4198 24.918V14.6933H17.4268V24.9587C17.4268 28.0723 15.6013 29.4894 12.9366 29.4894C10.529 29.4894 9.13475 28.2435 8.42566 26.7428L10.8734 25.2609Z" fill="black"/>
</svg>
