<svg width="26" height="26" viewBox="0 0 26 26" fill="none" xmlns="http://www.w3.org/2000/svg">
<path d="M23.4401 0H1.86875C0.837159 0 0 0.817469 0 1.8241V23.4886C0 24.4966 0.837159 25.3152 1.86875 25.3152H23.4401C24.4724 25.3152 25.3152 24.4966 25.3152 23.4886V1.8241C25.3152 0.817469 24.4724 0 23.4401 0ZM7.50806 21.572H3.75157V9.49143H7.50806V21.572ZM5.62981 7.83962C4.42629 7.83962 3.45341 6.86428 3.45341 5.66181C3.45341 4.4611 4.42629 3.48576 5.62981 3.48576C6.83052 3.48576 7.80586 4.4611 7.80586 5.66181C7.80586 6.86428 6.83052 7.83962 5.62981 7.83962ZM21.5706 21.572H17.8201V15.6975C17.8201 14.296 17.7927 12.4941 15.8684 12.4941C13.9142 12.4941 13.6164 14.0204 13.6164 15.5959V21.5724H9.86307V9.49143H13.4652V11.1411H13.5165C14.0179 10.1918 15.2429 9.19011 17.0698 9.19011C20.8692 9.19011 21.571 11.6914 21.571 14.9454L21.5706 21.572Z" fill="#155263"/>
</svg>
