<svg width="26" height="19" viewBox="0 0 26 19" fill="none" xmlns="http://www.w3.org/2000/svg">
<path d="M24.8356 6.26946C25.0284 6.11618 25.3152 6.25957 25.3152 6.50185V16.6131C25.3152 17.9233 24.2521 18.9864 22.9419 18.9864H2.3733C1.06304 18.9864 0 17.9233 0 16.6131V6.50679C0 6.25957 0.281829 6.12113 0.479604 6.2744C1.58714 7.13472 3.05562 8.22743 8.09888 11.8912C9.14214 12.6526 10.9023 14.2546 12.6576 14.2447C14.4227 14.2596 16.2175 12.623 17.2212 11.8912C22.2645 8.22743 23.728 7.12978 24.8356 6.26946ZM12.6576 12.6576C13.8047 12.6774 15.4561 11.2138 16.2867 10.6106C22.8479 5.84919 23.3473 5.43386 24.8603 4.24721C25.1471 4.02472 25.3152 3.67861 25.3152 3.31273V2.3733C25.3152 1.06304 24.2521 0 22.9419 0H2.3733C1.06304 0 0 1.06304 0 2.3733V3.31273C0 3.67861 0.168109 4.01977 0.454882 4.24721C1.96786 5.42892 2.46724 5.84919 9.02842 10.6106C9.85907 11.2138 11.5105 12.6774 12.6576 12.6576Z" fill="#155263"/>
</svg>
