<svg width="30" height="30" viewBox="0 0 30 30" fill="none" xmlns="http://www.w3.org/2000/svg">
<path fill-rule="evenodd" clip-rule="evenodd" d="M22.5 0.447765C21.6008 -0.133831 20.5417 -0.10223 19.4983 0.275899C18.4548 0.654067 17.3436 1.40454 16.2311 2.41749C15.8242 2.78795 15.4128 3.19744 15 3.64298C14.5872 3.19745 14.1758 2.78796 13.7689 2.4175C12.6564 1.40456 11.5452 0.654082 10.5017 0.275914C9.45834 -0.102215 8.39923 -0.133814 7.49999 0.447778C6.60076 1.02937 6.09563 2.07267 5.86625 3.27398C5.63685 4.47542 5.66146 5.92863 5.88826 7.51446C5.97121 8.09442 6.08209 8.69825 6.22012 9.3215C5.66929 9.49922 5.14705 9.69356 4.65722 9.90307C3.31786 10.476 2.18211 11.1787 1.36801 12.0019C0.553989 12.8251 0 13.8368 0 15C0 16.1632 0.553986 17.1749 1.36801 17.9981C2.18211 18.8213 3.31786 19.5241 4.65722 20.097C5.14706 20.3065 5.6693 20.5008 6.22014 20.6785C6.08211 21.3018 5.97123 21.9056 5.88829 22.4856C5.66148 24.0714 5.63687 25.5246 5.86627 26.726C6.09564 27.9273 6.60077 28.9706 7.5 29.5522C8.39924 30.1338 9.45835 30.1022 10.5017 29.7241C11.5452 29.3459 12.6564 28.5955 13.769 27.5825C14.1758 27.2121 14.5872 26.8026 15 26.3571C15.4128 26.8026 15.8242 27.2121 16.2311 27.5825C17.3436 28.5955 18.4548 29.346 19.4983 29.7241C20.5416 30.1022 21.6008 30.1338 22.5 29.5522C23.3992 28.9707 23.9044 27.9274 24.1337 26.726C24.3631 25.5246 24.3385 24.0714 24.1117 22.4856C24.0288 21.9056 23.9179 21.3018 23.7799 20.6785C24.3307 20.5008 24.8529 20.3065 25.3428 20.097C26.6821 19.5241 27.8179 18.8213 28.632 17.9981C29.446 17.1749 30 16.1632 30 15C30 13.8368 29.446 12.8251 28.632 12.0019C27.8179 11.1787 26.6821 10.476 25.3428 9.90307C24.8529 9.69356 24.3307 9.49922 23.7799 9.3215C23.9179 8.69824 24.0288 8.09441 24.1117 7.51443C24.3385 5.92861 24.3631 4.4754 24.1337 3.27397C23.9044 2.07265 23.3992 1.02936 22.5 0.447765ZM22.3203 8.90638C22.4475 8.33107 22.5492 7.77672 22.6249 7.24758C22.8347 5.78077 22.8381 4.55326 22.6612 3.6268C22.4843 2.70021 22.1488 2.16843 21.7471 1.90864C21.3454 1.64885 20.7665 1.58922 19.9618 1.88087C19.1571 2.17249 18.2099 2.78961 17.1808 3.72654C16.8096 4.06453 16.4318 4.44033 16.0507 4.85139C16.8737 5.85652 17.6924 6.99471 18.4828 8.24235C19.8425 8.38531 21.1318 8.61044 22.3203 8.90638ZM13.9493 4.85139C13.5682 4.44034 13.1904 4.06454 12.8192 3.72655C11.7901 2.78963 10.8429 2.17251 10.0382 1.88089C9.23346 1.58923 8.65458 1.64886 8.2529 1.90865L7.88836 1.20132L8.2529 1.90865C7.85123 2.16844 7.51569 2.70023 7.33877 3.62681C7.16187 4.55328 7.16535 5.78079 7.37513 7.2476C7.4508 7.77674 7.55246 8.33108 7.67965 8.90639C8.86824 8.61045 10.1575 8.38531 11.5172 8.24236C12.3076 6.99471 13.1262 5.85652 13.9493 4.85139ZM13.4852 8.09611C13.9866 7.3657 14.4939 6.68638 15 6.06397C15.5061 6.68638 16.0134 7.3657 16.5147 8.09611C16.0163 8.07403 15.511 8.06274 15 8.06274C14.489 8.06274 13.9837 8.07403 13.4852 8.09611ZM10.4201 10.0785C9.60476 10.1997 8.82597 10.3522 8.09173 10.532C8.31983 11.3342 8.59138 12.166 8.90536 13.0176C9.13751 12.523 9.38146 12.0271 9.63696 11.5314L10.289 11.9531L9.63696 11.5314C9.89245 11.0356 10.1538 10.551 10.4201 10.0785ZM9.69883 15C10.0726 14.134 10.487 13.2559 10.941 12.3748C11.3951 11.4938 11.8668 10.6526 12.3494 9.85709C13.2057 9.78668 14.0918 9.74961 15 9.74961C15.9081 9.74961 16.7942 9.78668 17.6506 9.85709C18.1332 10.6527 18.6049 11.4938 19.059 12.3748C19.513 13.2559 19.9274 14.1341 20.3012 15C19.9274 15.866 19.513 16.7442 19.059 17.6252C18.6049 18.5063 18.1332 19.3474 17.6506 20.1429C16.7943 20.2134 15.9082 20.2504 15 20.2504C14.0918 20.2504 13.2057 20.2134 12.3494 20.1429C11.8668 19.3474 11.3951 18.5063 10.941 17.6252C10.487 16.7442 10.0726 15.866 9.69883 15ZM8.0344 15C7.46506 13.6094 6.99448 12.2461 6.62897 10.945C6.12063 11.1093 5.64125 11.2878 5.19435 11.479C3.95551 12.0089 3.00481 12.6192 2.37703 13.2541C1.74917 13.889 1.50582 14.4804 1.50582 15C1.50582 15.5196 1.74917 16.111 2.37703 16.7459C3.00481 17.3808 3.95551 17.9912 5.19436 18.5211C5.64126 18.7122 6.12064 18.8908 6.62899 19.055C6.99449 17.754 7.46507 16.3906 8.0344 15ZM8.09175 19.468C8.31985 18.6658 8.5914 17.8341 8.90537 16.9824C9.13751 17.477 9.38146 17.9729 9.63695 18.4687C9.89244 18.9644 10.1538 19.449 10.4201 19.9215C9.60477 19.8003 8.82598 19.6479 8.09175 19.468ZM7.67967 21.0937C7.55248 21.669 7.45082 22.2233 7.37515 22.7524C7.16537 24.2192 7.16189 25.4467 7.33878 26.3732C7.5157 27.2998 7.85124 27.8316 8.25291 28.0914C8.65459 28.3511 9.23347 28.4108 10.0383 28.1191C10.8429 27.8275 11.7902 27.2104 12.8192 26.2735C13.1904 25.9355 13.5682 25.5597 13.9493 25.1487C13.1262 24.1435 12.3076 23.0053 11.5172 21.7577C10.1575 21.6147 8.86825 21.3896 7.67967 21.0937ZM16.0507 25.1487C16.4318 25.5597 16.8096 25.9355 17.1808 26.2735C18.2099 27.2104 19.1571 27.8275 19.9617 28.1191C20.7665 28.4108 21.3454 28.3512 21.7471 28.0914L22.1235 28.8218L21.7471 28.0914C22.1488 27.8316 22.4843 27.2998 22.6612 26.3732C22.8381 25.4468 22.8346 24.2192 22.6249 22.7524C22.5492 22.2233 22.4475 21.669 22.3203 21.0937C21.1318 21.3896 19.8425 21.6147 18.4828 21.7577C17.6924 23.0053 16.8738 24.1435 16.0507 25.1487ZM16.5148 21.9039C16.0134 22.6343 15.5061 23.3137 15 23.9361C14.4939 23.3137 13.9866 22.6343 13.4852 21.9039C13.9837 21.926 14.489 21.9373 15 21.9373C15.511 21.9373 16.0163 21.926 16.5148 21.9039ZM19.5799 19.9215C20.3952 19.8003 21.174 19.6479 21.9083 19.468C21.6802 18.6658 21.4086 17.8341 21.0946 16.9824C20.8625 17.477 20.6185 17.9729 20.363 18.4687C20.1076 18.9644 19.8462 19.449 19.5799 19.9215ZM21.9656 15C22.5349 16.3906 23.0055 17.754 23.371 19.055C23.8794 18.8908 24.3587 18.7122 24.8056 18.5211C26.0445 17.9912 26.9952 17.3808 27.623 16.7459C28.2508 16.111 28.4942 15.5196 28.4942 15C28.4942 14.4804 28.2508 13.889 27.623 13.2541C26.9952 12.6192 26.0445 12.0089 24.8056 11.479C24.3587 11.2878 23.8794 11.1093 23.371 10.945C23.0055 12.2461 22.5349 13.6094 21.9656 15ZM21.0946 13.0176C21.4086 12.166 21.6802 11.3342 21.9083 10.532C21.174 10.3522 20.3952 10.1997 19.5798 10.0785C19.8461 10.551 20.1075 11.0357 20.363 11.5314C20.6185 12.0271 20.8625 12.523 21.0946 13.0176ZM17.6551 15C17.6551 16.6427 16.4664 17.9744 15 17.9744C13.5336 17.9744 12.3448 16.6427 12.3448 15C12.3448 13.3573 13.5336 12.0257 15 12.0257C16.4664 12.0257 17.6551 13.3573 17.6551 15Z" fill="#61DAFB"/>
</svg>
