<svg width="21" height="21" viewBox="0 0 21 21" fill="none" xmlns="http://www.w3.org/2000/svg">
<path fill-rule="evenodd" clip-rule="evenodd" d="M10.34 20.68C16.0506 20.68 20.68 16.0506 20.68 10.34C20.68 4.62938 16.0506 0 10.34 0C4.62938 0 0 4.62938 0 10.34C0 16.0506 4.62938 20.68 10.34 20.68ZM12.9107 13.4261C13.2416 13.127 13.6743 12.9361 14.1579 12.9361C15.1823 12.9361 16.0159 13.7697 16.0159 14.7942C16.0159 15.8186 15.1823 16.6522 14.1579 16.6522C13.1334 16.6522 12.2998 15.8186 12.2998 14.7942C12.2998 14.6542 12.3189 14.5142 12.3507 14.3806L7.82023 11.7335C7.47663 12.0517 7.02485 12.2489 6.52217 12.2489C5.4659 12.2489 4.61324 11.3963 4.61324 10.34C4.61324 9.28374 5.4659 8.43108 6.52217 8.43108C7.02485 8.43108 7.47663 8.62834 7.82023 8.94649L12.3062 6.33127C12.2744 6.18492 12.2489 6.03857 12.2489 5.88585C12.2489 4.82958 13.1016 3.97693 14.1579 3.97693C15.2141 3.97693 16.0668 4.82958 16.0668 5.88585C16.0668 6.94212 15.2141 7.79478 14.1579 7.79478C13.6552 7.79478 13.2034 7.59752 12.8598 7.27937L8.37382 9.89459C8.40564 10.0409 8.43109 10.1873 8.43109 10.34C8.43109 10.4927 8.40564 10.6391 8.37382 10.7854L12.9107 13.4261Z" fill="#155263"/>
</svg>
