<svg width="30" height="18" viewBox="0 0 30 18" fill="none" xmlns="http://www.w3.org/2000/svg">
<path d="M15 18C10.9999 18 8.49997 16 7.49982 12.0002C9.00001 14.0003 10.7501 14.75 12.7499 14.2502C13.8911 13.965 14.7067 13.1369 15.6097 12.2205C17.0802 10.7278 18.7822 9.00018 22.5003 9.00018C26.5 9.00018 29.0003 11.0002 30 15.0003C28.5003 13.0003 26.7502 12.2502 24.75 12.75C23.6092 13.0352 22.7936 13.8633 21.8907 14.7797C20.4201 16.2724 18.7177 18 15 18ZM7.49982 9.00018C3.50006 9.00018 0.999751 7.00013 0 3.00007C1.49982 5.00009 3.24986 5.7502 5.25012 5.25002C6.3909 4.96444 7.20648 4.13666 8.10943 3.22069C9.58 1.72799 11.2824 -5.14458e-07 15 -5.14458e-07C19.0002 -5.14458e-07 21.5001 2.00005 22.5003 6.00011C21 4.00006 19.25 3.24998 17.2501 3.75015C16.1089 4.03496 15.2934 4.86352 14.3904 5.77949C12.9199 7.27219 11.2179 9.00018 7.49982 9.00018Z" fill="#06B6D4"/>
</svg>
