<svg width="32" height="32" viewBox="0 0 32 32" fill="none" xmlns="http://www.w3.org/2000/svg">
<path d="M0 0H32V32H0V0Z" fill="#017ACB"/>
<path d="M15.365 11.85H16.9V14.5001H12.75V26.2901L12.64 26.3201C12.49 26.3601 10.515 26.3601 10.09 26.3151L9.74999 26.2851V14.5001H5.59998V11.85L6.91498 11.8351C7.63498 11.825 9.48497 11.825 11.025 11.8351C12.565 11.845 14.515 11.85 15.365 11.85ZM27.08 25.0401C26.47 25.6851 25.815 26.0451 24.725 26.3401C24.25 26.4701 24.17 26.4751 23.1 26.4701C22.03 26.4651 21.945 26.4651 21.425 26.3301C20.08 25.9851 18.995 25.3101 18.255 24.3551C18.045 24.0851 17.7 23.5251 17.7 23.4551C17.7 23.4351 17.75 23.3901 17.815 23.3601C17.88 23.3301 18.015 23.2451 18.125 23.1801C18.235 23.1151 18.435 22.9951 18.57 22.9251C18.705 22.8551 19.095 22.6251 19.435 22.4201C19.775 22.2151 20.085 22.0501 20.12 22.0501C20.155 22.0501 20.22 22.1201 20.27 22.2051C20.57 22.7101 21.27 23.3551 21.765 23.5751C22.07 23.7051 22.745 23.8501 23.07 23.8501C23.37 23.8501 23.92 23.7201 24.215 23.5851C24.53 23.4401 24.69 23.2951 24.88 23.0051C25.01 22.8001 25.025 22.7451 25.02 22.3551C25.02 21.9951 25 21.8951 24.9 21.7301C24.62 21.2701 24.24 21.0301 22.7 20.3501C21.11 19.6451 20.395 19.2251 19.815 18.6601C19.385 18.2401 19.3 18.1251 19.03 17.6001C18.68 16.9251 18.635 16.7051 18.63 15.7001C18.625 14.9951 18.64 14.7651 18.715 14.5251C18.82 14.1651 19.16 13.47 19.315 13.2951C19.635 12.9201 19.75 12.805 19.975 12.6201C20.655 12.0601 21.715 11.69 22.73 11.6551C22.845 11.6551 23.225 11.6751 23.58 11.7001C24.6 11.785 25.295 12.0351 25.965 12.57C26.47 12.97 27.235 13.91 27.16 14.0351C27.11 14.11 25.115 15.4401 24.985 15.4801C24.905 15.5051 24.85 15.4751 24.74 15.3451C24.06 14.5301 23.785 14.3551 23.125 14.3151C22.655 14.2851 22.405 14.3401 22.09 14.55C21.76 14.7701 21.6 15.1051 21.6 15.5701C21.605 16.2501 21.865 16.5701 22.825 17.0451C23.445 17.3501 23.975 17.6001 24.015 17.6001C24.075 17.6001 25.36 18.2401 25.695 18.4401C27.255 19.3551 27.89 20.2951 28.055 21.9151C28.175 23.1351 27.83 24.2501 27.08 25.0401Z" fill="white"/>
</svg>
