<svg width="964" height="964" viewBox="0 0 964 964" fill="none" xmlns="http://www.w3.org/2000/svg">
<circle cx="482" cy="482" r="482" fill="black"/>
<path d="M454 479C449.333 479 445.667 478.333 443 477C437 474.333 434 473 434 473C434 472.333 437 470 443 466C447.667 463.333 453 462.333 459 463C465.667 463.667 470.333 463.667 473 463C489 459.667 508.333 455 531 449C553.667 443 580 431 610 413L649 390C652.333 388 654.667 388.333 656 391C654.667 391.667 654 393.333 654 396C658.667 396 661.333 394.333 662 391C663.333 387 664.667 383.333 666 380H667L689 366C692.333 365.333 695.333 365.667 698 367C701.333 368.333 704.333 368 707 366C705.667 363.333 704.333 361.667 703 361C701.667 359.667 702.333 358 705 356L709 353C714.333 349.667 719 347.333 723 346C727.667 344 731 340.333 733 335C746.333 323 757.667 311 767 299C776.333 287 781 275.667 781 265C781 253.667 774.667 244 762 236C750 227.333 728.333 221 697 217L689 216C684.333 215.333 680 214.667 676 214C672 213.333 668 212 664 210C664.667 212.667 663.333 214 660 214C650.667 213.333 641.333 213 632 213C622.667 212.333 613.667 212 605 212C590.333 212 576.667 212.333 564 213C552 213.667 543.333 214.333 538 215L505 219C501 217.667 497 218.333 493 221H492C487.333 221 482.667 221.667 478 223C473.333 223.667 468.333 224.667 463 226C460.333 226.667 457.333 227.333 454 228C450.667 228 447.333 228.667 444 230L424 234C419.333 237.333 413.333 239 406 239H405L386 244H385C382.333 244 380 242.667 378 240C376 236.667 374.667 233.667 374 231C373.333 235 372.333 239.333 371 244C369.667 248.667 367.333 251 364 251L336 260C333.333 260.667 330.333 261 327 261C323.667 261 320.333 261 317 261C313.667 261 311 261.333 309 262C307 262.667 305.667 264.333 305 267C305 269 304 270.667 302 272C299.333 274.667 296 276.667 292 278C288 278.667 284.333 279.667 281 281H280C278.667 281 276.667 280.333 274 279C272 277.667 270.333 277.333 269 278C268.333 278.667 267.667 280.333 267 283C266.333 285.667 265.333 287.333 264 288V289C260 290.333 255.667 292 251 294C246.333 296 242 298 238 300C234 302 229.333 304.333 224 307C219.333 309 215.333 310.333 212 311C210.667 311 210 309.667 210 307C210.667 304.333 210.333 303.667 209 305C205 307 201 310.667 197 316C193 321.333 189.333 325 186 327C182.667 329.667 179 331 175 331C171.667 331 168.333 332.333 165 335C163 337 161 340.333 159 345C157.667 349 156 352 154 354C148.667 359.333 143.333 365.667 138 373C137.333 374.333 136.333 375.667 135 377C133.667 378.333 133 380 133 382H132C128 390 126 397.667 126 405C126 419.667 131.333 430.333 142 437C153.333 443.667 166 448.667 180 452C182.667 452.667 185 453.667 187 455C189.667 456.333 192.333 456.667 195 456C197.667 454.667 200 454 202 454C205.333 454 208 455.333 210 458L225 461C233 463 237 465 237 467C237 468.333 235 469.667 231 471C227.667 471.667 224.333 472 221 472C209 472 194.333 469.667 177 465C159.667 459.667 144 452 130 442C116 432 108 419 106 403C106 402.333 105 400.667 103 398C101.667 395.333 100.667 393 100 391C98 385 97 379 97 373C97 361.667 99.3333 351 104 341C109.333 331 116.333 321.667 125 313C128.333 309.667 131.333 307.333 134 306C137.333 304.667 141 302.667 145 300C149 297.333 151 295 151 293C151 291 153 288.667 157 286C162.333 282.667 169.667 278.667 179 274C189 269.333 196.667 265.667 202 263C206 263 209.667 261.333 213 258C226.333 252 240.333 246.667 255 242C269.667 236.667 284.333 231.667 299 227C301.667 226.333 304 225.667 306 225C308 224.333 310 224 312 224C314.667 224 317.333 225 320 227C320 225.667 319.667 224.667 319 224C319 222.667 319.667 221.667 321 221C337.667 215.667 354 210.667 370 206C386.667 200.667 403 198 419 198H420C421.333 198 422.667 197.667 424 197C426 196.333 427.667 196 429 196H430L437 195C441 197 445 196.333 449 193C467 189.667 483.667 187.333 499 186C514.333 184 527.333 183 538 183H542C545.333 183 548 182.667 550 182H560C562 181.333 564 181.333 566 182C568.667 182 570.667 182 572 182H573C581 182 589.333 182.333 598 183C607.333 183 616.667 183 626 183H627C629.667 183 631.667 184 633 186C635 187.333 637.333 186.667 640 184C658 184.667 676 186.667 694 190C707.333 192 722.667 196 740 202C758 208 773.667 217.333 787 230C800.333 242 807 259 807 281C807 291.667 805.667 301.333 803 310C801 318 797 325.333 791 332C785.667 338.667 779.333 345.333 772 352C770 354 768 356.333 766 359C764 361.667 761.667 364 759 366C758.333 366.667 757 367.333 755 368C753.667 368 752.333 368.333 751 369C749.667 370.333 748.333 371.333 747 372C745.667 372.667 744 373.667 742 375C720 389.667 701 400.667 685 408C669.667 414.667 649.333 422.333 624 431C616 433.667 610.333 435.333 607 436C603.667 436 601 436.667 599 438C582.333 442.667 563.333 449.333 542 458C520.667 466.667 502.333 472.333 487 475C485.667 475.667 481.333 476.667 474 478C467.333 478.667 460.667 479 454 479ZM753 778C752.333 778 750 778 746 778C742 778 739.667 777.667 739 777C736.333 775.667 735.333 773.667 736 771C736.667 768.333 735.667 767 733 767C730.333 767 728.667 768 728 770C727.333 772.667 725.333 774 722 774H721C717.667 774 714.667 772.333 712 769C710 765.667 707.667 764.667 705 766C701 768 697.667 769 695 769C690.333 769 686.667 767.333 684 764C681.333 760.667 677.667 757.667 673 755C672.333 755 671 755.333 669 756C667.667 756.667 666.333 756.667 665 756C664.333 755.333 659 752.333 649 747C639 742.333 629 737.333 619 732C609 726.667 603 723.333 601 722C599 717.333 597 714.667 595 714C593.667 713.333 590.667 713 586 713C583.333 711 579.667 708.667 575 706C571 704 568.333 701.333 567 698C558.333 694.667 550.667 690.667 544 686C537.333 681.333 530.333 676 523 670C521.667 668.667 520 667.667 518 667C516 666.333 514.333 665.333 513 664L486 644C484.667 640 479.667 635.667 471 631C462.333 625.667 456.333 620.667 453 616C452.333 615.333 452 614.667 452 614C452 610.667 450.333 609 447 609C445 609 443 609 441 609C439 609 438 607.667 438 605C436 600.333 431 595 423 589C415 582.333 407.667 575.667 401 569C394.333 562.333 392 556.667 394 552C391.333 551.333 388.667 551 386 551C383.333 551 381.333 550 380 548C377.333 542.667 374 538.333 370 535C368 533.667 366 531.667 364 529L359 539C356.333 543 353.667 547.667 351 553C348.333 558.333 345.333 564 342 570L333 588C332.333 590 331.333 591 330 591C329.333 590.333 328.333 590 327 590C328.333 592.667 329 595 329 597C329 602.333 326 608 320 614C311.333 634 303.333 653 296 671C288.667 689 283 705.667 279 721C277.667 726.333 275.667 729 273 729C268.333 729 266 724 266 714C266 704.667 269.667 690 277 670L276 671C275.333 671 273 671.667 269 673C265 674.333 262.333 674.667 261 674C252.333 674 248 671 248 665C248 649 251.333 632.333 258 615L284 547C285.333 545 286 543 286 541C286.667 539 287.333 537 288 535L289 534V533L293 512C294.333 506 295 500.667 295 496C295.667 491.333 296 485.667 296 479C296 477 297 475.667 299 475C299 470.333 299.333 466 300 462C300.667 457.333 301 452.667 301 448V443C300.333 442.333 300 441 300 439C300 437.667 299.667 436.333 299 435C299 433.667 299 432.333 299 431C299 430.333 299 430 299 430C299.667 429.333 300 428.667 300 428C301.333 420 303.667 412.667 307 406C311 399.333 315.333 397.667 320 401C321.333 401.667 323.667 405.667 327 413C331 420.333 334.333 425.667 337 429C339.667 435.667 343 442 347 448C351 453.333 354.333 459.333 357 466C359 469.333 360 472 360 474C360 475.333 362.333 476.667 367 478C386.333 443.333 405.667 410.333 425 379C445 347 463.667 322.333 481 305L484 303L487 298C487 298 487.667 297.667 489 297C490.333 296.333 491.333 296.667 492 298C492 298.667 491.333 300 490 302C489.333 304 489 305.333 489 306C491 309.333 493.333 309.667 496 307C496.667 305.667 496.667 302.667 496 298C495.333 293.333 495.333 291 496 291C497.333 290.333 498 290.333 498 291C498.667 291.667 499.333 292 500 292C501.333 292 502 291 502 289C502 287 502.333 285.667 503 285C510.333 282.333 517 281 523 281C526.333 281 531 282.667 537 286C543.667 289.333 547 294 547 300C547 303.333 545.333 307.333 542 312C541.333 312.667 540.667 314 540 316C539.333 317.333 538.333 318.667 537 320C536.333 320.667 535.667 321 535 321C535 320.333 534.333 320.333 533 321C532.333 321.667 531.333 322 530 322C529.333 321.333 528.333 321 527 321C525.667 321 525.333 322 526 324C527.333 326 527.667 327.333 527 328C526.333 328.667 525.667 328.667 525 328C524.333 327.333 523.333 327.667 522 329C521.333 329.667 521.667 330.333 523 331C525 331 525.333 331.667 524 333C520 337 515 341.333 509 346C503.667 350 498.333 354 493 358C492.333 358.667 491.667 358.667 491 358C490.333 356.667 489.667 356.333 489 357L482 367C475.333 373.667 468.667 380.667 462 388C455.333 395.333 448.333 403.667 441 413C439 417 436.667 420.667 434 424C431.333 427.333 427.667 428.667 423 428C423 428.667 423.667 429.667 425 431C426.333 431.667 426.333 433 425 435C410.333 455 396.667 475.667 384 497L405 523C407 525.667 408 528.667 408 532C408 534.667 408.667 536.333 410 537C411.333 537 412.333 536.667 413 536C414.333 535.333 415.333 535 416 535C418 535 419.667 536.667 421 540C423 542.667 425 545 427 547C429.667 549.667 432.333 552.333 435 555C438.333 557.667 441.667 560.667 445 564V565C447.667 567 452 570.667 458 576C464 581.333 469.667 586.667 475 592C480.333 596.667 483.333 600.333 484 603C485.333 605.667 487.333 607.333 490 608C492.667 608.667 495 609.667 497 611C502.333 615 507.667 619 513 623C519 627 524.667 631.333 530 636C532 637.333 532.667 638.667 532 640C532 641.333 532.333 642.667 533 644C534.333 644.667 536.667 645.667 540 647C544 647.667 547 648.667 549 650C564.333 660 579.667 669.667 595 679C610.333 689 626.333 698.333 643 707C660.333 715.667 678 723.333 696 730C714 736.667 733 740 753 740C769 740 784.333 737 799 731C814.333 725 822 714 822 698C822 692.667 821 687 819 681C818.333 677.667 817 674 815 670C813.667 666 811.333 663 808 661C806 657 802.333 654.333 797 653C793.667 649.667 790.667 646.333 788 643C785.333 639 781.333 637.333 776 638C774 636 773 634 773 632C773 629.333 774 627.333 776 626C778.667 624 781.667 623.667 785 625C789.667 627.667 793.333 631.333 796 636C799.333 640 803.667 642.333 809 643L814 648C816 651.333 818 654 820 656C822.667 658 825 660.667 827 664C829 666.667 831 670.333 833 675C835.667 680.333 837.333 684.667 838 688C839.333 690.667 839.667 693.333 839 696C839 698.667 840 701.667 842 705C843.333 725.667 836.667 742.333 822 755C807.333 768.333 790.333 775.667 771 777C769 775.667 767 774.667 765 774C763.667 773.333 762.333 773 761 773C759 773 756.333 774.667 753 778ZM290 638C291.333 638.667 292 638.667 292 638C292.667 636.667 293 636 293 636C294.333 634 295 632 295 630C295 627.333 295.333 625 296 623C308 593 323.333 560.333 342 525C343.333 522.333 344.667 521.667 346 523C348 523.667 349.333 523.333 350 522C351.333 520.667 351.667 519 351 517C351 515 351 513.333 351 512C350.333 510.667 349.333 509.667 348 509C346.667 508.333 345.667 507.333 345 506C342.333 498.667 338.667 494 334 492C330 489.333 327 485.333 325 480C322.333 474 319.667 469.667 317 467C315 463.667 312.333 459.667 309 455L306 489C305.333 495.667 304.333 503.333 303 512C302.333 520.667 300.667 528.667 298 536C297.333 538 297 541 297 545V556C297 557.333 296.667 559 296 561C296 563 296 565 296 567L294 587C293.333 593.667 292.333 600.667 291 608C289.667 614.667 289 621 289 627C289 632.333 289.333 636 290 638Z" fill="white"/>
</svg>
