<svg width="747" height="597" viewBox="0 0 747 597" fill="none" xmlns="http://www.w3.org/2000/svg">
<path d="M357 298C352.333 298 348.667 297.333 346 296C340 293.333 337 292 337 292C337 291.333 340 289 346 285C350.667 282.333 356 281.333 362 282C368.667 282.667 373.333 282.667 376 282C392 278.667 411.333 274 434 268C456.667 262 483 250 513 232L552 209C555.333 207 557.667 207.333 559 210C557.667 210.667 557 212.333 557 215C561.667 215 564.333 213.333 565 210C566.333 206 567.667 202.333 569 199H570L592 185C595.333 184.333 598.333 184.667 601 186C604.333 187.333 607.333 187 610 185C608.667 182.333 607.333 180.667 606 180C604.667 178.667 605.333 177 608 175L612 172C617.333 168.667 622 166.333 626 165C630.667 163 634 159.333 636 154C649.333 142 660.667 130 670 118C679.333 106 684 94.6666 684 84C684 72.6667 677.667 63 665 55C653 46.3333 631.333 40 600 36L592 35C587.333 34.3333 583 33.6666 579 33C575 32.3333 571 31 567 29C567.667 31.6666 566.333 33 563 33C553.667 32.3333 544.333 32 535 32C525.667 31.3333 516.667 31 508 31C493.333 31 479.667 31.3333 467 32C455 32.6666 446.333 33.3333 441 34L408 38C404 36.6666 400 37.3333 396 40H395C390.333 40 385.667 40.6666 381 42C376.333 42.6666 371.333 43.6666 366 45C363.333 45.6667 360.333 46.3333 357 47C353.667 47 350.333 47.6666 347 49L327 53C322.333 56.3333 316.333 58 309 58H308L289 63H288C285.333 63 283 61.6666 281 59C279 55.6666 277.667 52.6666 277 50C276.333 54 275.333 58.3333 274 63C272.667 67.6666 270.333 70 267 70L239 79C236.333 79.6666 233.333 80 230 80C226.667 80 223.333 80 220 80C216.667 80 214 80.3333 212 81C210 81.6666 208.667 83.3333 208 86C208 88 207 89.6666 205 91C202.333 93.6667 199 95.6667 195 97C191 97.6666 187.333 98.6666 184 100H183C181.667 100 179.667 99.3333 177 98C175 96.6666 173.333 96.3333 172 97C171.333 97.6666 170.667 99.3333 170 102C169.333 104.667 168.333 106.333 167 107V108C163 109.333 158.667 111 154 113C149.333 115 145 117 141 119C137 121 132.333 123.333 127 126C122.333 128 118.333 129.333 115 130C113.667 130 113 128.667 113 126C113.667 123.333 113.333 122.667 112 124C108 126 104 129.667 100 135C96 140.333 92.3333 144 89 146C85.6667 148.667 82 150 78 150C74.6667 150 71.3333 151.333 68 154C66 156 64 159.333 62 164C60.6667 168 59 171 57 173C51.6667 178.333 46.3333 184.667 41 192C40.3333 193.333 39.3333 194.667 38 196C36.6667 197.333 36 199 36 201H35C31 209 29 216.667 29 224C29 238.667 34.3333 249.333 45 256C56.3333 262.667 69 267.667 83 271C85.6667 271.667 88 272.667 90 274C92.6667 275.333 95.3333 275.667 98 275C100.667 273.667 103 273 105 273C108.333 273 111 274.333 113 277L128 280C136 282 140 284 140 286C140 287.333 138 288.667 134 290C130.667 290.667 127.333 291 124 291C112 291 97.3333 288.667 80 284C62.6667 278.667 47 271 33 261C19 251 11 238 9 222C9 221.333 8 219.667 6 217C4.66667 214.333 3.66667 212 3 210C1 204 1.19209e-06 198 1.19209e-06 192C1.19209e-06 180.667 2.33333 170 7 160C12.3333 150 19.3333 140.667 28 132C31.3333 128.667 34.3333 126.333 37 125C40.3333 123.667 44 121.667 48 119C52 116.333 54 114 54 112C54 110 56 107.667 60 105C65.3333 101.667 72.6667 97.6666 82 93C92 88.3333 99.6667 84.6666 105 82C109 82 112.667 80.3333 116 77C129.333 71 143.333 65.6666 158 61C172.667 55.6667 187.333 50.6667 202 46C204.667 45.3333 207 44.6666 209 44C211 43.3333 213 43 215 43C217.667 43 220.333 44 223 46C223 44.6667 222.667 43.6666 222 43C222 41.6666 222.667 40.6666 224 40C240.667 34.6666 257 29.6666 273 25C289.667 19.6666 306 17 322 17H323C324.333 17 325.667 16.6666 327 16C329 15.3333 330.667 15 332 15H333L340 14C344 16 348 15.3333 352 12C370 8.66665 386.667 6.33332 402 4.99998C417.333 2.99997 430.333 1.99996 441 1.99996H445C448.333 1.99996 451 1.66663 453 0.999976H463C465 0.333318 467 0.333318 469 0.999976C471.667 0.999976 473.667 0.999976 475 0.999976H476C484 0.999976 492.333 1.33331 501 1.99996C510.333 1.99996 519.667 1.99996 529 1.99996H530C532.667 1.99996 534.667 2.99997 536 4.99998C538 6.33332 540.333 5.66665 543 2.99998C561 3.66664 579 5.66664 597 8.99999C610.333 11 625.667 15 643 21C661 27 676.667 36.3333 690 49C703.333 61 710 78 710 100C710 110.667 708.667 120.333 706 129C704 137 700 144.333 694 151C688.667 157.667 682.333 164.333 675 171C673 173 671 175.333 669 178C667 180.667 664.667 183 662 185C661.333 185.667 660 186.333 658 187C656.667 187 655.333 187.333 654 188C652.667 189.333 651.333 190.333 650 191C648.667 191.667 647 192.667 645 194C623 208.667 604 219.667 588 227C572.667 233.667 552.333 241.333 527 250C519 252.667 513.333 254.333 510 255C506.667 255 504 255.667 502 257C485.333 261.667 466.333 268.333 445 277C423.667 285.667 405.333 291.333 390 294C388.667 294.667 384.333 295.667 377 297C370.333 297.667 363.667 298 357 298ZM656 597C655.333 597 653 597 649 597C645 597 642.667 596.667 642 596C639.333 594.667 638.333 592.667 639 590C639.667 587.333 638.667 586 636 586C633.333 586 631.667 587 631 589C630.333 591.667 628.333 593 625 593H624C620.667 593 617.667 591.333 615 588C613 584.667 610.667 583.667 608 585C604 587 600.667 588 598 588C593.333 588 589.667 586.333 587 583C584.333 579.667 580.667 576.667 576 574C575.333 574 574 574.333 572 575C570.667 575.667 569.333 575.667 568 575C567.333 574.333 562 571.333 552 566C542 561.333 532 556.333 522 551C512 545.667 506 542.333 504 541C502 536.333 500 533.667 498 533C496.667 532.333 493.667 532 489 532C486.333 530 482.667 527.667 478 525C474 523 471.333 520.333 470 517C461.333 513.667 453.667 509.667 447 505C440.333 500.333 433.333 495 426 489C424.667 487.667 423 486.667 421 486C419 485.333 417.333 484.333 416 483L389 463C387.667 459 382.667 454.667 374 450C365.333 444.667 359.333 439.667 356 435C355.333 434.333 355 433.667 355 433C355 429.667 353.333 428 350 428C348 428 346 428 344 428C342 428 341 426.667 341 424C339 419.333 334 414 326 408C318 401.333 310.667 394.667 304 388C297.333 381.333 295 375.667 297 371C294.333 370.333 291.667 370 289 370C286.333 370 284.333 369 283 367C280.333 361.667 277 357.333 273 354C271 352.667 269 350.667 267 348L262 358C259.333 362 256.667 366.667 254 372C251.333 377.333 248.333 383 245 389L236 407C235.333 409 234.333 410 233 410C232.333 409.333 231.333 409 230 409C231.333 411.667 232 414 232 416C232 421.333 229 427 223 433C214.333 453 206.333 472 199 490C191.667 508 186 524.667 182 540C180.667 545.333 178.667 548 176 548C171.333 548 169 543 169 533C169 523.667 172.667 509 180 489L179 490C178.333 490 176 490.667 172 492C168 493.333 165.333 493.667 164 493C155.333 493 151 490 151 484C151 468 154.333 451.333 161 434L187 366C188.333 364 189 362 189 360C189.667 358 190.333 356 191 354L192 353V352L196 331C197.333 325 198 319.667 198 315C198.667 310.333 199 304.667 199 298C199 296 200 294.667 202 294C202 289.333 202.333 285 203 281C203.667 276.333 204 271.667 204 267V262C203.333 261.333 203 260 203 258C203 256.667 202.667 255.333 202 254C202 252.667 202 251.333 202 250C202 249.333 202 249 202 249C202.667 248.333 203 247.667 203 247C204.333 239 206.667 231.667 210 225C214 218.333 218.333 216.667 223 220C224.333 220.667 226.667 224.667 230 232C234 239.333 237.333 244.667 240 248C242.667 254.667 246 261 250 267C254 272.333 257.333 278.333 260 285C262 288.333 263 291 263 293C263 294.333 265.333 295.667 270 297C289.333 262.333 308.667 229.333 328 198C348 166 366.667 141.333 384 124L387 122L390 117C390 117 390.667 116.667 392 116C393.333 115.333 394.333 115.667 395 117C395 117.667 394.333 119 393 121C392.333 123 392 124.333 392 125C394 128.333 396.333 128.667 399 126C399.667 124.667 399.667 121.667 399 117C398.333 112.333 398.333 110 399 110C400.333 109.333 401 109.333 401 110C401.667 110.667 402.333 111 403 111C404.333 111 405 110 405 108C405 106 405.333 104.667 406 104C413.333 101.333 420 100 426 100C429.333 100 434 101.667 440 105C446.667 108.333 450 113 450 119C450 122.333 448.333 126.333 445 131C444.333 131.667 443.667 133 443 135C442.333 136.333 441.333 137.667 440 139C439.333 139.667 438.667 140 438 140C438 139.333 437.333 139.333 436 140C435.333 140.667 434.333 141 433 141C432.333 140.333 431.333 140 430 140C428.667 140 428.333 141 429 143C430.333 145 430.667 146.333 430 147C429.333 147.667 428.667 147.667 428 147C427.333 146.333 426.333 146.667 425 148C424.333 148.667 424.667 149.333 426 150C428 150 428.333 150.667 427 152C423 156 418 160.333 412 165C406.667 169 401.333 173 396 177C395.333 177.667 394.667 177.667 394 177C393.333 175.667 392.667 175.333 392 176L385 186C378.333 192.667 371.667 199.667 365 207C358.333 214.333 351.333 222.667 344 232C342 236 339.667 239.667 337 243C334.333 246.333 330.667 247.667 326 247C326 247.667 326.667 248.667 328 250C329.333 250.667 329.333 252 328 254C313.333 274 299.667 294.667 287 316L308 342C310 344.667 311 347.667 311 351C311 353.667 311.667 355.333 313 356C314.333 356 315.333 355.667 316 355C317.333 354.333 318.333 354 319 354C321 354 322.667 355.667 324 359C326 361.667 328 364 330 366C332.667 368.667 335.333 371.333 338 374C341.333 376.667 344.667 379.667 348 383V384C350.667 386 355 389.667 361 395C367 400.333 372.667 405.667 378 411C383.333 415.667 386.333 419.333 387 422C388.333 424.667 390.333 426.333 393 427C395.667 427.667 398 428.667 400 430C405.333 434 410.667 438 416 442C422 446 427.667 450.333 433 455C435 456.333 435.667 457.667 435 459C435 460.333 435.333 461.667 436 463C437.333 463.667 439.667 464.667 443 466C447 466.667 450 467.667 452 469C467.333 479 482.667 488.667 498 498C513.333 508 529.333 517.333 546 526C563.333 534.667 581 542.333 599 549C617 555.667 636 559 656 559C672 559 687.333 556 702 550C717.333 544 725 533 725 517C725 511.667 724 506 722 500C721.333 496.667 720 493 718 489C716.667 485 714.333 482 711 480C709 476 705.333 473.333 700 472C696.667 468.667 693.667 465.333 691 462C688.333 458 684.333 456.333 679 457C677 455 676 453 676 451C676 448.333 677 446.333 679 445C681.667 443 684.667 442.667 688 444C692.667 446.667 696.333 450.333 699 455C702.333 459 706.667 461.333 712 462L717 467C719 470.333 721 473 723 475C725.667 477 728 479.667 730 483C732 485.667 734 489.333 736 494C738.667 499.333 740.333 503.667 741 507C742.333 509.667 742.667 512.333 742 515C742 517.667 743 520.667 745 524C746.333 544.667 739.667 561.333 725 574C710.333 587.333 693.333 594.667 674 596C672 594.667 670 593.667 668 593C666.667 592.333 665.333 592 664 592C662 592 659.333 593.667 656 597ZM193 457C194.333 457.667 195 457.667 195 457C195.667 455.667 196 455 196 455C197.333 453 198 451 198 449C198 446.333 198.333 444 199 442C211 412 226.333 379.333 245 344C246.333 341.333 247.667 340.667 249 342C251 342.667 252.333 342.333 253 341C254.333 339.667 254.667 338 254 336C254 334 254 332.333 254 331C253.333 329.667 252.333 328.667 251 328C249.667 327.333 248.667 326.333 248 325C245.333 317.667 241.667 313 237 311C233 308.333 230 304.333 228 299C225.333 293 222.667 288.667 220 286C218 282.667 215.333 278.667 212 274L209 308C208.333 314.667 207.333 322.333 206 331C205.333 339.667 203.667 347.667 201 355C200.333 357 200 360 200 364V375C200 376.333 199.667 378 199 380C199 382 199 384 199 386L197 406C196.333 412.667 195.333 419.667 194 427C192.667 433.667 192 440 192 446C192 451.333 192.333 455 193 457Z" fill="white"/>
</svg>
